# xmcd
#
# Track frame offsets:
#	150
#	11264
#	23443
#	33269
#	46095
#	57673
#	69836
#	80546
#	93037
#	105027
#	115960
#	127945
#	140593
#	152357
#	165595
#
# Disc length: 2383 seconds
#
# Revision: 1
# Processed by: cddbd v1.4PL0 Copyright (c) Steve Scherf et al.
# Submitted via: audiograbber 1.81.03
#
DISCID=9f094d0f
DTITLE=Various Artist - Blues Volume 2
DYEAR=2001
DGENRE=Soul
TTITLE0=Boom Boom (John Lee Hooker)
TTITLE1=Crawlin' Kingsnake (John Lee Hooker)
TTITLE2=Dimples (John Lee Hooker)
TTITLE3=Don't Look Back (John Lee Hooker)
TTITLE4=I Love You Honey (John Lee Hooker)
TTITLE5=I'm In The Mood (John Lee Hooker)
TTITLE6=Baby What do You Want Me To Do (Jimmy Reed)
TTITLE7=Big Boss Man (Jimmy Reed)
TTITLE8=Bright Lights Big City (Jimmy Reed)
TTITLE9=Good Lover (Jimmy Reed)
TTITLE10=Honest I Do (Jimmy Reed)
TTITLE11=Shame Shame Shame (Jimmy Reed)
TTITLE12=Baby Ride With Me (Howlin' Wolf)
TTITLE13=California Blues (Howlin' Wolf)
TTITLE14=Well That's Alright (Howlin' Wolf)
EXTD=
EXTT0=
EXTT1=
EXTT2=
EXTT3=
EXTT4=
EXTT5=
EXTT6=
EXTT7=
EXTT8=
EXTT9=
EXTT10=
EXTT11=
EXTT12=
EXTT13=
EXTT14=
PLAYORDER=
